<?xml version="1.0" standalone="no"?>
<!DOCTYPE svg PUBLIC "-//W3C//DTD SVG 20010904//EN"
 "http://www.w3.org/TR/2001/REC-SVG-20010904/DTD/svg10.dtd">
<svg version="1.0" xmlns="http://www.w3.org/2000/svg"
 width="184.000000pt" height="45.000000pt" viewBox="0 0 184.000000 45.000000"
 preserveAspectRatio="xMidYMid meet">

<g transform="translate(0.000000,45.000000) scale(0.100000,-0.100000)"
fill="#000000" stroke="none">
<path d="M596 359 c-17 -17 -18 -19 -3 -19 13 0 17 -9 17 -40 0 -33 -4 -42
-22 -50 l-23 -9 24 0 c23 -1 24 -3 19 -71 -4 -55 -2 -70 8 -70 11 0 14 17 14
69 l0 69 53 11 52 10 -53 -2 -52 -2 0 43 0 42 53 1 c28 0 70 4 92 8 33 7 24 9
-52 10 -55 1 -93 5 -93 11 0 15 -13 11 -34 -11z"/>
<path d="M220 315 c-17 -53 -7 -62 11 -10 9 25 13 45 9 45 -5 0 -14 -16 -20
-35z"/>
<path d="M965 330 c-23 -26 -4 -26 26 0 18 15 20 19 8 20 -9 0 -24 -9 -34 -20z"/>
<path d="M465 328 c-22 -12 -54 -48 -55 -62 0 -4 13 5 28 20 15 16 36 34 47
41 25 15 7 16 -20 1z"/>
<path d="M310 326 c0 -2 8 -10 18 -17 15 -13 16 -12 3 4 -13 16 -21 21 -21 13z"/>
<path d="M361 327 c2 -1 13 -9 24 -17 19 -14 19 -14 6 3 -7 9 -18 17 -24 17
-6 0 -8 -1 -6 -3z"/>
<path d="M885 289 c-11 -6 -30 -23 -42 -38 -18 -21 -23 -23 -23 -8 0 9 -4 17
-10 17 -6 0 -10 -33 -10 -80 0 -47 4 -80 10 -80 6 0 10 15 10 33 0 46 39 118
79 144 34 23 23 32 -14 12z"/>
<path d="M960 208 c0 -83 10 -136 21 -112 8 18 -3 204 -12 204 -5 0 -9 -42 -9
-92z"/>
<path d="M1100 278 c-39 -27 -70 -81 -70 -123 0 -39 16 -55 55 -55 34 0 71 32
97 84 l15 29 7 -56 c4 -32 12 -57 18 -57 7 0 8 14 4 37 -3 21 -6 57 -6 81 0
60 -19 53 -53 -19 -31 -65 -64 -94 -97 -84 -42 13 -19 99 42 150 25 21 39 26
65 22 18 -3 33 -2 33 4 0 18 -77 9 -110 -13z"/>
<path d="M1575 289 c-11 -6 -30 -23 -42 -38 -18 -21 -23 -23 -23 -8 0 9 -4 17
-10 17 -6 0 -10 -33 -10 -80 0 -47 4 -80 10 -80 6 0 10 15 10 33 0 46 39 118
79 144 34 23 23 32 -14 12z"/>
<path d="M1692 284 c-51 -36 -68 -123 -32 -162 32 -34 103 -31 141 7 50 51 37
130 -26 157 -44 18 -55 18 -83 -2z m100 -31 c29 -26 23 -79 -11 -114 -72 -72
-155 7 -106 101 8 16 23 33 32 39 19 10 58 -1 85 -26z"/>
<path d="M103 280 c27 -5 59 -16 73 -24 13 -9 24 -14 24 -11 0 16 -70 45 -105
44 l-40 -1 48 -8z"/>
<path d="M1339 267 c-44 -30 -81 -85 -77 -117 6 -53 113 -28 155 37 21 32 33
14 33 -49 0 -59 -29 -96 -83 -105 -28 -4 -42 -1 -57 12 -17 15 -20 16 -20 3 0
-33 88 -39 137 -8 39 23 48 53 39 133 -7 70 -22 93 -40 62 -24 -43 -97 -106
-119 -103 -39 5 -33 43 16 95 39 41 50 48 85 48 22 0 38 3 36 7 -10 16 -72 7
-105 -15z"/>
<path d="M100 220 c12 -16 24 -30 26 -30 3 0 -4 14 -16 30 -12 17 -24 30 -26
30 -3 0 4 -13 16 -30z"/>
</g>
</svg>
